<?xml version="1.0" encoding="iso-8859-1"?>
<!-- Generator: Adobe Illustrator 16.0.0, SVG Export Plug-In . SVG Version: 6.00 Build 0)  -->
<!DOCTYPE svg PUBLIC "-//W3C//DTD SVG 1.1//EN" "http://www.w3.org/Graphics/SVG/1.1/DTD/svg11.dtd">
<svg version="1.1" id="&#x56FE;&#x5C42;_1" xmlns="http://www.w3.org/2000/svg" xmlns:xlink="http://www.w3.org/1999/xlink" x="0px"
	 y="0px" viewBox="0 0 219.358 113.201" style="enable-background:new 0 0 219.358 113.201;"
	 xml:space="preserve">
<g>
	<g style="opacity:0.75;">
		<path style="fill:#30748B;" d="M9.235,78.534V40.731c-1.6-0.1-2.8-1.4-2.8-4.2c0-2.4,1.2-4,2.8-4.9v-3.9
			c-0.4-0.5-0.6-1.8-0.6-2.601c0-2.2,2.9-4,4.8-4c3.1,0,4.9,1.7,4.2,4.8v0.9c5.601-3.1,8.601-6.1,17.001-6.1
			c7.401,0,11.301,4.4,11.301,10.101c0,8.9-7.9,21.701-28.102,25.801v22.202c0.4,0.699,1.1,1.6,1.1,2.6
			c0,3.701-0.9,4.201-6.201,4.201c-3.1,0-4.7-1.801-4.7-4C8.035,80.434,8.235,79.634,9.235,78.534z M17.835,48.532
			c14.901-2.7,19.301-10.201,19.201-15.601c0-1.6-1.8-4-5.4-4c-4.6,0-7.601,1.6-13.801,6.4V48.532z"/>
		<path style="fill:#30748B;" d="M83.236,59.333c0,8.401-4.1,15.802-6,18.201c-6,7.602-9.901,9.502-16.701,9.502
			c-4.1,0-10.701-4.501-10.701-15.902c0-17.701,9.801-30.702,21.601-30.702C80.936,40.432,83.236,52.132,83.236,59.333z
			 M58.234,69.633c0,5.801,1.7,9.9,4.4,9.9c3,0,5.5-1.799,8-5.199c2.6-3.701,4.2-8.801,4.2-14.602c0-6.701-1.3-11.801-5.4-11.801
			C63.935,47.932,58.234,58.433,58.234,69.633z"/>
		<path style="fill:#30748B;" d="M128.436,75.235c0,1.199,0.101,2.399,1.101,2.399s6.5-4.7,9.101-9.3
			c-0.101-2.301,1.3-3.801,3.399-3.801c3.801,0,4.601,1.8,4.601,4.301c0,3.699-13.2,17.6-20.301,17.6c-3.9,0-6.2-3.5-6.2-7.3V48.632
			l-15.801,2.9v23.703c0,1.199,0.1,2.399,1.1,2.399c0.8,0,2.1-0.899,2.5-1.8c-0.1-2.301,1.3-3.9,3.4-3.9c3.8,0,4.6,1.9,4.6,4.4
			c0,3.4-7.8,10.1-13.7,10.1c-3.9,0-6.201-3.5-6.201-7.3V53.232l-4,0.7c-0.5,0.5-1.1,0.7-2,0.9c-2.5-0.2-3.8-1.8-3.8-4.601
			c0-2.3,1.6-4,3.8-4c0.7,0,1.4,0.3,1.7,0.6l4.3-0.8V33.731c-0.4-0.4-0.6-0.8-0.6-2.2c0-2.4,1.9-3.4,5.701-3.4
			c1.7,0,4.2,0.3,4.2,2.8c0,0.7-0.3,1.6-1,2.4v11.101l15.801-2.9v-7.801c-0.4-0.4-0.601-0.8-0.601-2.2c0-2.4,1.9-3.4,5.7-3.4
			c1.7,0,4.201,0.3,4.201,2.8c0,0.7-0.3,1.6-1,2.4v6.601l8.301-1.7c0.5-0.5,1-0.8,1.7-0.8c2.4,0,3.4,2.2,3.4,3.7
			c0,2.8-1,4.701-3.101,4.701c-0.7,0-1.3,0-1.6-0.5l-8.701,1.7V75.235z"/>
		<path style="fill:#30748B;" d="M181.635,52.932c0,4.801-2.9,8.401-19.801,12.201l-3.4,0.801c-0.5,1.899-0.7,3.9-0.7,6.1
			c0,5.101,1.6,7.101,4.8,7.101c4.601,0,9.201-3.899,10.001-6.7c-0.3-2.4,1.5-4.2,4.4-4.2c3.5,0,4.101,2.3,4.101,4
			c0,2.7-7.801,14.401-19.702,14.401c-6.4,0-11.7-3.5-11.7-13.901c0-18.401,10.301-31.802,20.701-31.802
			C178.635,40.932,181.635,48.632,181.635,52.932z M159.833,59.133c12.801-2.701,14.501-4.001,14.501-5.501c0-2.7-1.5-5.2-4.5-5.2
			C165.035,48.432,161.434,53.732,159.833,59.133z"/>
		<path style="fill:#30748B;" d="M189.333,47.032l-0.7-2.5c0-1.7,2.3-3.3,5.3-3.3c2.5,0,4.301,1.3,4.301,3c0,0.7,0.1,1.4-0.601,2.2
			v2.9h0.101c4.3-4.6,8.2-7.9,11.4-7.9c2.601,0,5.5,2.6,5.5,12c0,2.5-1.1,4.301-4.5,4.301c-2.5,0-4.101-0.9-4.101-2.601
			c0-0.8,0.2-1.8,0.5-2.6c0-1-0.3-2.1-1-2.1c-0.8,0-4.5,3.3-7.9,8.601v19.501c0.601,0.5,1.2,1.601,1.2,2.701c0,3-1.4,4.4-6.601,4.4
			c-2.8,0-4.2-1.201-4.2-3.9c0-0.9,0.7-1.801,1.301-2.301V47.032z"/>
	</g>
	<g>
		<g>
			<path style="fill:#FFFFFF;" d="M6.4,75.699V37.897c-1.6-0.1-2.8-1.4-2.8-4.2c0-2.4,1.2-4,2.8-4.9v-3.9
				c-0.4-0.5-0.6-1.8-0.6-2.601c0-2.2,2.9-4,4.8-4c3.1,0,4.9,1.7,4.2,4.8v0.9c5.601-3.1,8.601-6.1,17.001-6.1
				c7.401,0,11.301,4.4,11.301,10.101c0,8.9-7.9,21.701-28.102,25.801V76c0.4,0.699,1.1,1.6,1.1,2.6c0,3.701-0.9,4.201-6.201,4.201
				c-3.1,0-4.7-1.801-4.7-4C5.2,77.599,5.4,76.799,6.4,75.699z M15.001,45.698c14.901-2.7,19.301-10.201,19.201-15.601
				c0-1.6-1.8-4-5.4-4c-4.6,0-7.601,1.6-13.801,6.4V45.698z"/>
			<path style="fill:#FFFFFF;" d="M80.401,56.498c0,8.401-4.1,15.801-6,18.201c-6,7.602-9.901,9.502-16.701,9.502
				C53.6,84.201,47,79.7,47,68.298c0-17.701,9.801-30.701,21.601-30.701C78.102,37.597,80.401,49.298,80.401,56.498z M55.4,66.798
				c0,5.801,1.7,9.9,4.4,9.9c3,0,5.5-1.799,8-5.199c2.6-3.701,4.2-8.801,4.2-14.601c0-6.701-1.3-11.801-5.4-11.801
				C61.1,45.098,55.4,55.598,55.4,66.798z"/>
			<path style="fill:#FFFFFF;" d="M125.601,72.4c0,1.199,0.101,2.399,1.101,2.399s6.5-4.7,9.101-9.3
				c-0.101-2.301,1.3-3.801,3.399-3.801c3.801,0,4.601,1.8,4.601,4.301c0,3.699-13.2,17.6-20.301,17.6c-3.9,0-6.2-3.5-6.2-7.3
				V45.797l-15.801,2.9V72.4c0,1.199,0.1,2.399,1.1,2.399c0.8,0,2.1-0.899,2.5-1.8c-0.1-2.301,1.3-3.9,3.4-3.9
				c3.8,0,4.6,1.9,4.6,4.4c0,3.4-7.8,10.1-13.7,10.1c-3.9,0-6.201-3.5-6.201-7.3V50.398l-4,0.7c-0.5,0.5-1.1,0.7-2,0.9
				c-2.5-0.2-3.8-1.8-3.8-4.601c0-2.3,1.6-4,3.8-4c0.7,0,1.4,0.3,1.7,0.6l4.3-0.8V30.896c-0.4-0.4-0.6-0.8-0.6-2.2
				c0-2.4,1.9-3.4,5.701-3.4c1.7,0,4.2,0.3,4.2,2.8c0,0.7-0.3,1.6-1,2.4v11.101l15.801-2.9v-7.801c-0.4-0.4-0.601-0.8-0.601-2.2
				c0-2.4,1.9-3.4,5.7-3.4c1.7,0,4.2,0.3,4.2,2.8c0,0.7-0.3,1.6-1,2.4v6.601l8.301-1.7c0.5-0.5,1-0.8,1.7-0.8c2.4,0,3.4,2.2,3.4,3.7
				c0,2.8-1,4.701-3.101,4.701c-0.7,0-1.3,0-1.6-0.5l-8.701,1.7V72.4z"/>
			<path style="fill:#FFFFFF;" d="M178.8,50.098c0,4.8-2.9,8.401-19.801,12.201l-3.4,0.801c-0.5,1.899-0.7,3.9-0.7,6.1
				c0,5.101,1.6,7.101,4.8,7.101c4.601,0,9.201-3.899,10.001-6.7c-0.3-2.4,1.5-4.2,4.4-4.2c3.5,0,4.101,2.3,4.101,4
				c0,2.7-7.801,14.401-19.702,14.401c-6.4,0-11.7-3.5-11.7-13.901c0-18.401,10.301-31.802,20.701-31.802
				C175.8,38.097,178.8,45.797,178.8,50.098z M156.999,56.298c12.801-2.7,14.501-4,14.501-5.5c0-2.7-1.5-5.2-4.5-5.2
				C162.2,45.598,158.599,50.898,156.999,56.298z"/>
			<path style="fill:#FFFFFF;" d="M186.498,44.197l-0.7-2.5c0-1.7,2.3-3.3,5.3-3.3c2.5,0,4.301,1.3,4.301,3c0,0.7,0.1,1.4-0.601,2.2
				v2.9h0.101c4.3-4.6,8.2-7.9,11.4-7.9c2.601,0,5.5,2.6,5.5,12c0,2.5-1.1,4.3-4.5,4.3c-2.5,0-4.101-0.9-4.101-2.6
				c0-0.8,0.2-1.8,0.5-2.6c0-1-0.3-2.1-1-2.1c-0.8,0-4.5,3.3-7.9,8.601v19.5c0.601,0.5,1.2,1.601,1.2,2.701c0,3-1.4,4.4-6.601,4.4
				c-2.8,0-4.2-1.201-4.2-3.9c0-0.9,0.7-1.801,1.301-2.301V44.197z"/>
		</g>
	</g>
</g>
</svg>
